<svg width="20" height="18" viewBox="0 0 20 18" fill="none" xmlns="http://www.w3.org/2000/svg">
<path d="M7.00301 2.22378C7.94634 -0.679471 12.0537 -0.679471 12.997 2.22378C13.4189 3.52215 14.6288 4.40122 15.994 4.40122C19.0466 4.40122 20.3159 8.30752 17.8462 10.1018C16.7418 10.9043 16.2796 12.3266 16.7015 13.625C17.6448 16.5283 14.3219 18.9425 11.8522 17.1482C10.7478 16.3457 9.25222 16.3457 8.14776 17.1482C5.67811 18.9425 2.35521 16.5283 3.29853 13.625C3.7204 12.3266 3.25825 10.9043 2.15378 10.1018C-0.31587 8.30752 0.953364 4.40122 4.00602 4.40122C5.37121 4.40122 6.58114 3.52215 7.00301 2.22378Z" fill="#0463EA"/>
</svg>
