<svg width="34" height="34" viewBox="0 0 34 34" fill="none" xmlns="http://www.w3.org/2000/svg">
<path fill-rule="evenodd" clip-rule="evenodd" d="M16.1078 4.19852C15.7603 4.38131 15.2343 4.99863 14.939 5.56999C14.5852 6.25546 14.0101 6.81863 13.2491 7.22569C10.4961 8.69754 10.0771 9.65587 9.84571 15.0136C9.67506 18.9659 9.63221 19.2134 8.91766 20.3865C8.50597 21.063 7.90779 22.0514 7.58857 22.5832C7.23169 23.178 7.00701 23.9818 7.00416 24.6726L7 25.7952H17H27V24.7254C27 23.5761 26.6457 22.7401 25.259 20.616C24.3818 19.2723 24.3758 19.2414 24.2844 15.7277C24.186 11.9294 24.061 11.118 23.3545 9.68203C22.7953 8.54591 22.24 8.02184 20.7509 7.22516C20.0039 6.8255 19.4447 6.28319 19.1642 5.68595C18.9257 5.17878 18.5745 4.63172 18.3834 4.47059C17.7932 3.9724 16.7701 3.8501 16.1078 4.19852ZM13.4935 27.2829C13.4935 27.8215 14.6706 29.2355 15.42 29.5974C16.5431 30.1395 17.4668 30.1344 18.6148 29.5805C19.4138 29.1951 20.5026 27.8897 20.5055 27.3141C20.506 27.2053 18.9286 27.116 17 27.116C15.0714 27.116 13.4935 27.191 13.4935 27.2829Z" fill="#DADADA"/>
</svg>
