<svg width="25" height="21" viewBox="0 0 25 21" fill="none" xmlns="http://www.w3.org/2000/svg">
<path fill-rule="evenodd" clip-rule="evenodd" d="M10.8665 0.221429C10.0034 0.576411 9.54416 0.886273 8.93126 1.52704C8.23343 2.25662 7.90575 2.7991 7.71096 3.54707C7.52271 4.26983 7.52214 5.67307 7.70963 6.39308C8.04149 7.66704 8.97145 8.76705 10.3185 9.47891L11.1184 9.90166H12.5473H13.9764L14.8077 9.48972C15.9114 8.94279 16.5684 8.28685 17.1374 7.16371L17.564 6.3218V4.98377V3.64565L17.1866 2.88962C16.9497 2.41483 16.589 1.90013 16.2171 1.50581C15.1996 0.427214 14.0986 -0.00160687 12.3506 4.52297e-06C11.5765 0.00066804 11.3045 0.0412372 10.8665 0.221429ZM4.07593 5.26037C3.31801 5.63952 2.60018 6.35119 2.24216 7.07831C2.0451 7.4785 2.01875 7.66609 2.01875 8.66942C2.01875 9.761 2.03078 9.82991 2.31695 10.3771C2.68245 11.076 3.369 11.7342 4.13679 12.1218C4.67622 12.3941 4.78296 12.4135 5.73643 12.4126C6.61331 12.4118 6.82536 12.3799 7.23209 12.1872C7.97134 11.8371 8.47865 11.4178 8.86254 10.8396L9.21563 10.3078L8.93477 10.1125C8.36396 9.71541 7.39939 8.65103 7.05986 8.04363C6.60327 7.22674 6.43502 6.66295 6.3627 5.70729L6.30345 4.92529H5.52458C4.82248 4.92529 4.67964 4.95828 4.07593 5.26037ZM18.8436 5.3744C18.8436 6.1854 18.6731 6.83745 18.2296 7.72277C17.7408 8.69871 17.1458 9.4246 16.3618 10.0018L15.8181 10.4021L16.1178 10.8546C16.4305 11.3267 16.907 11.7119 17.7236 12.1529C18.164 12.3907 18.2949 12.4136 19.2149 12.4136C20.1684 12.4136 20.2604 12.3958 20.9014 12.0886C21.7338 11.6897 22.2444 11.1781 22.6808 10.3058C22.9964 9.67503 23.0143 9.58773 23.0142 8.68042C23.0141 7.81396 22.987 7.66419 22.7326 7.12627C22.3664 6.35242 21.6175 5.56511 20.9396 5.24141C20.5384 5.04984 20.2154 4.97685 19.6256 4.94444L18.8436 4.9015V5.3744ZM10.7866 11.9916C10.4478 12.064 9.72265 12.3444 9.17525 12.615C8.28708 13.0538 8.07798 13.2098 7.23209 14.0635C6.71076 14.5897 6.14108 15.2643 5.9662 15.5625C5.30306 16.6935 4.91462 17.9984 4.91139 19.1051C4.90921 19.8677 5.02931 19.9718 6.05729 20.0975C6.99171 20.2118 19.5657 20.1796 19.8018 20.0623C20.7665 19.5832 19.8986 16.1797 18.3498 14.3677C17.4522 13.3176 15.5979 12.2369 14.2618 11.9849C13.3453 11.8121 11.611 11.8154 10.7866 11.9916ZM4.7676 13.9015C2.89288 14.1505 0.942616 15.8294 0.255307 17.7861C0.0395695 18.4005 -0.0795791 19.6874 0.0604229 19.8917C0.19379 20.0862 0.905743 20.1741 2.3979 20.1805L3.72493 20.1861L3.72967 19.0724C3.73327 18.2165 3.78351 17.7855 3.94645 17.2103C4.22608 16.2233 4.70978 15.1918 5.2441 14.443L5.67766 13.8354L5.36486 13.8496C5.19273 13.8574 4.924 13.8808 4.7676 13.9015ZM19.6019 13.8798C19.6019 13.9055 19.7578 14.1702 19.9483 14.468C21.0516 16.1928 21.6599 18.4848 21.3734 19.8387L21.2966 20.202L22.9697 20.1704C24.5955 20.1396 24.6479 20.1324 24.8238 19.915C25.201 19.4488 24.9591 18.1653 24.2275 16.752C23.6003 15.5403 22.244 14.445 20.929 14.0881C20.3296 13.9255 19.6019 13.8113 19.6019 13.8798Z" fill="#DADADA"/>
</svg>
