<svg width="25" height="25" viewBox="0 0 25 25" fill="none" xmlns="http://www.w3.org/2000/svg">
<path fill-rule="evenodd" clip-rule="evenodd" d="M12.6572 2.93535C12.9271 3.02308 13.0515 3.08969 13.8854 3.59326C15.4903 4.56231 17.2068 5.26015 18.8958 5.63019C19.5938 5.78313 19.7865 5.88235 19.9629 6.17957L20.0758 6.36984L20.0901 9.04244C20.1052 11.8804 20.069 12.7951 19.9123 13.537C19.4887 15.5431 18.1673 17.5491 16.1372 19.2682C15.0096 20.223 13.3912 21.3001 12.2331 21.8665L11.9902 21.9852L11.3108 21.619C7.8292 19.7424 5.2525 17.094 4.35052 14.4651C3.94424 13.2809 3.89164 12.6323 3.91073 9.04244L3.92497 6.36984L4.03788 6.17957C4.20754 5.89376 4.4108 5.78452 5.01876 5.65246C6.75002 5.27641 8.4966 4.57071 10.1154 3.59326C10.9459 3.0918 11.0726 3.02348 11.3332 2.93697C11.7059 2.81327 12.2795 2.81255 12.6572 2.93535ZM11.0012 13.8024L13.6961 10.9058C15.1783 9.31275 16.4108 8.00934 16.4349 8.00934C16.49 8.00934 17.8184 9.17019 17.8184 9.21838C17.8184 9.25391 11.65 15.9045 11.2859 16.2615L11.0928 16.4508L8.89357 14.4294C7.68403 13.3176 6.69445 12.3936 6.69454 12.3759C6.69468 12.3583 6.98595 12.0508 7.34188 11.6926L7.98898 11.0413L8.26094 11.2907C8.41049 11.428 8.98317 11.9524 9.53356 12.4562C10.0839 12.96 10.6393 13.469 10.7677 13.5873L11.0012 13.8024Z" fill="#DADADA"/>
<path fill-rule="evenodd" clip-rule="evenodd" d="M9.1578 1.97861C10.1586 1.38363 10.4404 1.25063 10.99 1.11354C11.8547 0.897802 12.9547 0.995318 13.7328 1.35664C13.8935 1.43129 14.3932 1.71117 14.843 1.97861C16.4967 2.96168 17.7538 3.47405 19.5013 3.8771C20.1406 4.02456 20.4268 4.13039 20.7507 4.33912C21.296 4.69051 21.6974 5.23037 21.8951 5.87818C21.9677 6.11633 21.9786 6.44189 21.9956 8.88523C22.0074 10.5897 21.9951 11.9393 21.9631 12.4562C21.8658 14.0236 21.5179 15.2394 20.7678 16.6335C19.5513 18.8943 17.2845 21.0846 14.3508 22.834C13.5366 23.3196 12.1649 24 12.0004 24C11.8359 24 10.4642 23.3196 9.64996 22.834C5.9079 20.6025 3.31882 17.704 2.43183 14.7531C2.03918 13.4467 1.97923 12.6223 2.00525 8.88523C2.02224 6.44189 2.03313 6.11633 2.10574 5.87818C2.30336 5.23037 2.70476 4.69051 3.25008 4.33912C3.57398 4.13039 3.86018 4.02456 4.49956 3.8771C6.24697 3.47405 7.50413 2.96168 9.1578 1.97861ZM13.8854 3.59326C13.0515 3.08969 12.9271 3.02308 12.6572 2.93535C12.2795 2.81255 11.7059 2.81327 11.3332 2.93697C11.0726 3.02348 10.9459 3.0918 10.1154 3.59326C8.4966 4.57071 6.75002 5.27641 5.01876 5.65246C4.4108 5.78452 4.20754 5.89376 4.03788 6.17957L3.92497 6.36984L3.91073 9.04244C3.89164 12.6323 3.94424 13.2809 4.35052 14.4651C5.2525 17.094 7.8292 19.7424 11.3108 21.619L11.9902 21.9852L12.2331 21.8665C13.3912 21.3001 15.0096 20.223 16.1372 19.2682C18.1673 17.5491 19.4887 15.5431 19.9123 13.537C20.069 12.7951 20.1052 11.8804 20.0901 9.04244L20.0758 6.36984L19.9629 6.17957C19.7865 5.88235 19.5938 5.78313 18.8958 5.63019C17.2068 5.26015 15.4903 4.56231 13.8854 3.59326Z" fill="#DADADA"/>
</svg>
