<svg width="25" height="25" viewBox="0 0 25 25" fill="none" xmlns="http://www.w3.org/2000/svg">
<path fill-rule="evenodd" clip-rule="evenodd" d="M11.0788 0.209948C9.96842 0.72401 9.21343 1.88742 9.21343 3.085C9.21343 3.45847 9.09228 3.68644 8.85371 3.76223C8.65578 3.82507 7.97698 4.18754 7.3453 4.56788C6.21134 5.25081 6.18758 5.25572 5.44319 4.95785C4.46004 4.56455 3.79832 4.58261 2.81319 5.03011C1.73323 5.5206 1.08428 6.57956 1.10293 7.82072C1.11923 8.89911 1.71301 10.0183 2.48273 10.4217C2.96203 10.6728 2.98128 10.7531 2.98128 12.5105C2.98128 14.2679 2.96203 14.3482 2.48273 14.5993C1.16734 15.2886 0.695098 17.4997 1.56319 18.9045C2.04151 19.6783 3.24184 20.3532 4.15333 20.3604C4.44806 20.3628 5.02849 20.2291 5.44319 20.0632C6.18758 19.7653 6.21134 19.7702 7.3453 20.4531C7.97698 20.8335 8.64459 21.1924 8.82877 21.2509C9.05772 21.3236 9.19576 21.6421 9.26507 22.2578C9.37405 23.2253 9.79877 23.9286 10.6635 24.5742C11.4238 25.1419 13.2865 25.1419 14.0467 24.5742C14.9115 23.9286 15.3362 23.2253 15.4452 22.2578C15.5145 21.6421 15.6525 21.3236 15.8815 21.2509C16.0657 21.1924 16.7333 20.8335 17.365 20.4531C18.4989 19.7702 18.5227 19.7653 19.2671 20.0632C20.2502 20.4565 20.912 20.4384 21.8971 19.9909C24.0059 19.0333 24.1944 15.7351 22.2077 14.5614C21.7007 14.262 21.6821 14.1895 21.6821 12.5105C21.6821 10.8315 21.7007 10.759 22.2077 10.4596C24.1609 9.30577 24.0165 6.08965 21.9646 5.04287C21.0535 4.5779 20.2777 4.55355 19.2671 4.95785C18.5227 5.25572 18.4989 5.25081 17.365 4.56788C16.7333 4.18754 16.0657 3.8286 15.8815 3.77009C15.6525 3.69744 15.5145 3.37895 15.4452 2.76317C15.2708 1.21569 14.1557 0.131602 12.6151 0.0112356C12.0649 -0.0317665 11.4211 0.051685 11.0788 0.209948ZM14.5889 8.98099C14.9838 9.24824 15.5485 9.81296 15.8436 10.2357C16.3151 10.9106 16.3804 11.1878 16.3804 12.5105C16.3804 13.8332 16.3151 14.1104 15.8436 14.7853C15.5485 15.208 14.9806 15.7749 14.5816 16.0449C13.9649 16.4626 13.6324 16.5358 12.3551 16.5358C11.0778 16.5358 10.7454 16.4626 10.1287 16.0449C9.72965 15.7749 9.16179 15.208 8.86667 14.7853C8.39404 14.1088 8.32983 13.8345 8.32983 12.4952C8.32983 11.1211 8.38697 10.8923 8.9189 10.1371C9.80191 8.8836 10.9622 8.34009 12.5729 8.42589C13.5519 8.47793 14.0471 8.6144 14.5889 8.98099Z" fill="#DADADA"/>
</svg>
