<svg width="25" height="25" viewBox="0 0 25 25" fill="none" xmlns="http://www.w3.org/2000/svg">
<path fill-rule="evenodd" clip-rule="evenodd" d="M9.3187 6.06533C10.5104 6.33346 11.9364 6.55283 12.4872 6.55283C13.0379 6.55283 14.4639 6.33346 15.6556 6.06533C18.2334 5.4854 18.7851 5.47039 19.847 5.95087C21.2363 6.57974 22.3467 8.46129 23.1524 11.5518C23.7409 13.809 23.9841 17.0054 23.6581 18.1953C23.0786 20.311 21.802 20.1135 18.4079 17.3833C16.3484 15.7266 15.3858 15.3378 12.9702 15.1866C11.1733 15.0743 9.36292 15.4477 8.08978 16.1934C7.6566 16.4471 6.64388 17.1901 5.83934 17.8445C4.25218 19.1354 2.99274 19.7323 2.24846 19.546C1.46975 19.3512 1.2332 18.4515 1.26686 15.8153C1.3281 11.0374 3.28251 6.37772 5.49107 5.74358C6.31518 5.50685 7.1473 5.57686 9.3187 6.06533ZM5.04341 8.62353C5.14222 8.36418 5.42435 8.01162 5.67029 7.84002C6.33279 7.37768 7.25609 7.44749 7.86067 8.00597C8.14535 8.26902 8.37837 8.62451 8.37837 8.79611C8.37837 8.9681 8.64446 9.20054 8.97121 9.31402C9.55524 9.51702 10.1393 10.3302 10.1393 10.9403C10.1393 11.537 9.56698 12.3494 8.97454 12.5939C8.64662 12.7294 8.37837 12.9654 8.37837 13.1183C8.37837 13.2713 8.14535 13.6116 7.86067 13.8747C6.96241 14.7044 5.47053 14.3766 5.04282 13.2556C4.94363 12.9956 4.70708 12.7281 4.5171 12.6612C4.32711 12.5943 3.97376 12.3621 3.73154 12.1448C2.89589 11.3953 3.28701 9.69232 4.3907 9.27405C4.65073 9.17538 4.94441 8.88269 5.04341 8.62353ZM18.4466 9.59853C17.4607 10.2424 16.4245 9.18767 17.0733 8.20077C17.2889 7.87278 17.5681 7.72283 17.9632 7.72283C18.9761 7.72283 19.3136 9.03225 18.4466 9.59853ZM15.7495 12.0128C14.8117 12.0128 14.3314 10.9202 14.9632 10.2245C15.5691 9.55719 16.7916 10.0131 16.7916 10.9064C16.7916 11.4282 16.241 12.0128 15.7495 12.0128ZM19.6286 11.8533C19.0522 11.5916 18.9522 10.6673 19.4468 10.1742C20.215 9.40879 21.2011 10.0642 21.1191 11.2857C21.0845 11.8046 20.2342 12.1283 19.6286 11.8533ZM17.0921 13.7756C16.6492 13.2877 16.8311 12.4533 17.4333 12.2117C17.7369 12.09 17.8828 12.0304 18.0191 12.0475C18.1486 12.0637 18.2695 12.1492 18.5089 12.3164C18.988 12.6509 19.0982 13.536 18.709 13.9238C18.3496 14.282 17.4797 14.2023 17.0921 13.7756Z" fill="#DADADA"/>
<path d="M7.28133 9.00632C7.34668 9.17597 7.40009 9.48582 7.40009 9.69486C7.40009 10.0829 7.48618 10.1373 8.42729 10.3428C8.8366 10.4322 8.96534 10.5751 8.96534 10.9403C8.96534 11.3056 8.8366 11.4485 8.42729 11.5378C7.48618 11.7433 7.40009 11.7977 7.40009 12.1858C7.40009 12.8638 7.17235 13.1828 6.68829 13.1828C6.20659 13.1828 6.15454 13.1113 5.94519 12.1591C5.85636 11.755 5.71119 11.6228 5.35588 11.6228C4.77967 11.6228 4.24631 11.1304 4.39736 10.7379C4.4584 10.5794 4.74073 10.399 5.02482 10.3374C5.96437 10.1334 6.0305 10.0794 6.0305 9.51644C6.0305 9.20912 6.08919 8.89926 6.161 8.82789C6.41007 8.57966 7.16315 8.69958 7.28133 9.00632Z" fill="#DADADA"/>
<path fill-rule="evenodd" clip-rule="evenodd" d="M0.0430254 15.3635C0.409881 10.1356 2.30012 5.88379 4.7511 4.77405C5.81723 4.29142 6.64114 4.31736 9.22165 4.91445C11.9806 5.55287 13.0409 5.55346 15.684 4.91776C16.8503 4.63735 18.171 4.40979 18.6188 4.41213C20.5564 4.42227 22.4212 6.08503 23.4359 8.70758C25.2672 13.4404 25.5249 18.4055 24.0262 20.0762C23.5357 20.623 23.3609 20.6893 22.4324 20.6805C21.1524 20.6687 20.0123 20.0901 17.9514 18.4061C15.7609 16.6162 15.1794 16.403 12.4872 16.403C9.78827 16.403 9.20796 16.6171 7.00878 18.4246C4.99254 20.0819 3.36038 20.8746 2.26588 20.7283C0.540775 20.4976 -0.192936 18.7272 0.0430254 15.3635ZM12.4872 6.55283C11.9364 6.55283 10.5104 6.33346 9.3187 6.06533C7.1473 5.57686 6.31518 5.50685 5.49107 5.74358C3.28251 6.37772 1.3281 11.0374 1.26686 15.8153C1.2332 18.4515 1.46975 19.3512 2.24846 19.546C2.99274 19.7323 4.25218 19.1354 5.83934 17.8445C6.64388 17.1901 7.6566 16.4471 8.08978 16.1934C9.36292 15.4477 11.1733 15.0743 12.9702 15.1866C15.3858 15.3378 16.3484 15.7266 18.4079 17.3833C21.802 20.1135 23.0786 20.311 23.6581 18.1953C23.9841 17.0054 23.7409 13.809 23.1524 11.5518C22.3467 8.46129 21.2363 6.57974 19.847 5.95087C18.7851 5.47039 18.2334 5.4854 15.6556 6.06533C14.4639 6.33346 13.0379 6.55283 12.4872 6.55283Z" fill="#DADADA"/>
</svg>
