<svg width="25" height="25" viewBox="0 0 25 25" fill="none" xmlns="http://www.w3.org/2000/svg">
<path fill-rule="evenodd" clip-rule="evenodd" d="M10.8757 0.0957991C9.07292 0.569465 7.49012 1.86725 6.66287 3.54976C6.00154 4.89475 5.98449 7.42136 6.6278 8.74696C7.29971 10.1313 8.09621 10.9645 9.44081 11.6895C10.5764 12.3018 10.8189 12.3572 12.3449 12.3533C13.7598 12.3496 14.1602 12.2709 15.0104 11.8291C16.4866 11.062 17.1013 10.4685 17.8426 9.09369C18.4505 7.96653 18.5082 7.71501 18.5082 6.1943C18.5082 4.67242 18.4507 4.42266 17.8401 3.29021C16.7393 1.24901 15.0366 0.152412 12.7588 0.0178342C12.0464 -0.0242825 11.1989 0.0107821 10.8757 0.0957991ZM9.56285 14.9959C5.78664 16.2032 2.9421 19.9455 2.9421 23.7058C2.9421 25.0359 2.6796 24.9999 12.379 24.9999C20.5782 24.9999 21.1187 24.9786 21.4235 24.6416C22.294 23.6798 21.2354 19.9866 19.4722 17.835C18.5265 16.6808 16.7076 15.4939 15.1452 15.0112C13.512 14.5068 11.1129 14.5003 9.56285 14.9959Z" fill="#DADADA"/>
</svg>
