<svg width="25" height="25" viewBox="0 0 25 25" fill="none" xmlns="http://www.w3.org/2000/svg">
<path fill-rule="evenodd" clip-rule="evenodd" d="M11.4923 1.94255C11.258 2.01903 10.9063 2.1675 10.7103 2.27247C10.3456 2.4681 2.64789 10.7102 2.13542 11.4542C1.88484 11.8178 1.85156 12.3995 1.85156 16.4167C1.85156 21.5144 1.89482 21.7573 2.94339 22.5592C3.55136 23.0241 3.64138 23.041 5.77412 23.0937L7.9769 23.1479L8.0393 19.9278C8.09687 16.9608 8.13231 16.645 8.49071 15.9127C9.20251 14.458 10.9867 13.2916 12.5003 13.2916C14.0089 13.2916 15.6841 14.3759 16.4549 15.8514C16.8876 16.6793 16.9044 16.8136 16.9629 19.9278L17.0237 23.1479L19.2264 23.0937C21.3592 23.041 21.4492 23.0241 22.0572 22.5592C23.1059 21.7572 23.1492 21.5142 23.1478 16.4212C23.147 12.3775 23.1147 11.827 22.8567 11.4385C22.2607 10.5412 14.6275 2.45077 14.1375 2.19699C13.5342 1.88456 12.0938 1.7461 11.4923 1.94255ZM11.1562 15.5034C10.8474 15.7117 10.4244 16.1353 10.2165 16.4446C9.85707 16.9786 9.8381 17.1599 9.8381 20.0647V23.1227H12.5003H15.1625V20.0647C15.1625 17.1599 15.1435 16.9786 14.7841 16.4446C13.9011 15.1322 12.3156 14.721 11.1562 15.5034Z" fill="#DADADA"/>
</svg>
