<svg width="19" height="18" viewBox="0 0 19 18" fill="none" xmlns="http://www.w3.org/2000/svg">
<path d="M7.6357 2.97378C8.22251 1.16779 10.7775 1.16779 11.3643 2.97378C11.8945 4.60549 13.415 5.71024 15.1307 5.71024C17.0296 5.71024 17.8192 8.14018 16.2829 9.25634C14.8949 10.2648 14.3141 12.0523 14.8443 13.684C15.4311 15.49 13.364 16.9918 11.8278 15.8756C10.4398 14.8672 8.56025 14.8672 7.17223 15.8756C5.63597 16.9918 3.56894 15.49 4.15574 13.684C4.68591 12.0523 4.10511 10.2648 2.7171 9.25634C1.18083 8.14018 1.97037 5.71024 3.8693 5.71024C5.58497 5.71024 7.10553 4.60549 7.6357 2.97378Z" stroke="#0463EA" stroke-width="2"/>
</svg>
