<svg width="345" height="107" viewBox="0 0 345 107" fill="none" xmlns="http://www.w3.org/2000/svg">
<path d="M120.925 92.9795H118.167V91.0386H120.364C121.007 91.0386 121.528 90.9409 121.926 90.7456C122.325 90.5422 122.618 90.2573 122.805 89.8911C122.992 89.5249 123.086 89.0936 123.086 88.5972C123.086 88.1903 122.98 87.8159 122.769 87.4741C122.565 87.1323 122.248 86.8597 121.816 86.6562C121.385 86.4447 120.836 86.3389 120.168 86.3389C119.664 86.3389 119.204 86.4284 118.789 86.6074C118.374 86.7865 118.044 87.0387 117.8 87.3643C117.556 87.6816 117.434 88.0682 117.434 88.5239H113.784C113.784 87.7427 113.951 87.0428 114.285 86.4243C114.626 85.7977 115.09 85.2687 115.676 84.8374C116.27 84.3979 116.954 84.0643 117.727 83.8364C118.5 83.6086 119.314 83.4946 120.168 83.4946C121.169 83.4946 122.073 83.6045 122.878 83.8242C123.684 84.0358 124.376 84.3532 124.954 84.7764C125.531 85.1995 125.975 85.7244 126.284 86.3511C126.593 86.9777 126.748 87.7061 126.748 88.5361C126.748 89.1465 126.61 89.7202 126.333 90.2573C126.056 90.7944 125.662 91.2664 125.149 91.6733C124.636 92.0802 124.022 92.4017 123.306 92.6377C122.59 92.8656 121.796 92.9795 120.925 92.9795ZM118.167 91.9175H120.925C121.894 91.9175 122.752 92.0192 123.501 92.2227C124.258 92.4261 124.897 92.7231 125.417 93.1138C125.946 93.5044 126.345 93.9886 126.614 94.5664C126.89 95.1361 127.029 95.7912 127.029 96.5317C127.029 97.3618 126.858 98.0983 126.516 98.7412C126.182 99.3841 125.706 99.9294 125.088 100.377C124.478 100.825 123.753 101.162 122.915 101.39C122.085 101.618 121.169 101.732 120.168 101.732C119.371 101.732 118.577 101.634 117.788 101.439C116.999 101.236 116.283 100.926 115.64 100.511C114.997 100.096 114.484 99.5632 114.102 98.9121C113.719 98.2611 113.528 97.4798 113.528 96.5684H117.202C117.202 96.9997 117.328 97.3944 117.581 97.7524C117.833 98.1024 118.183 98.3831 118.63 98.5947C119.078 98.7982 119.591 98.8999 120.168 98.8999C120.844 98.8999 121.418 98.7941 121.89 98.5825C122.37 98.3709 122.732 98.082 122.976 97.7158C123.228 97.3415 123.354 96.9305 123.354 96.4829C123.354 96.0028 123.289 95.5959 123.159 95.2622C123.029 94.9285 122.838 94.6559 122.585 94.4443C122.333 94.2246 122.02 94.0659 121.646 93.9683C121.279 93.8706 120.852 93.8218 120.364 93.8218H118.167V91.9175ZM136.648 98.5215V92.6377C136.648 92.2145 136.579 91.8524 136.44 91.5513C136.302 91.242 136.086 91.002 135.793 90.8311C135.509 90.6602 135.138 90.5747 134.683 90.5747C134.292 90.5747 133.954 90.6439 133.669 90.7822C133.385 90.9124 133.165 91.1037 133.01 91.356C132.856 91.6001 132.778 91.889 132.778 92.2227H129.263C129.263 91.6611 129.393 91.1281 129.653 90.6235C129.914 90.119 130.292 89.6755 130.789 89.293C131.285 88.9023 131.875 88.5972 132.559 88.3774C133.25 88.1577 134.023 88.0479 134.878 88.0479C135.903 88.0479 136.815 88.2188 137.612 88.5605C138.41 88.9023 139.036 89.415 139.492 90.0986C139.956 90.7822 140.188 91.6367 140.188 92.6621V98.314C140.188 99.0382 140.233 99.6323 140.322 100.096C140.412 100.552 140.542 100.951 140.713 101.292V101.5H137.161C136.99 101.142 136.86 100.694 136.77 100.157C136.689 99.612 136.648 99.0667 136.648 98.5215ZM137.112 93.4556L137.136 95.4453H135.171C134.707 95.4453 134.304 95.4982 133.962 95.604C133.621 95.7098 133.34 95.8604 133.12 96.0557C132.9 96.2428 132.738 96.4626 132.632 96.7148C132.534 96.9671 132.485 97.2438 132.485 97.5449C132.485 97.846 132.555 98.1187 132.693 98.3628C132.831 98.5988 133.031 98.786 133.291 98.9243C133.551 99.0545 133.857 99.1196 134.207 99.1196C134.736 99.1196 135.195 99.0138 135.586 98.8022C135.977 98.5907 136.278 98.3302 136.489 98.021C136.709 97.7118 136.823 97.4188 136.831 97.1421L137.759 98.6313C137.629 98.965 137.45 99.3109 137.222 99.6689C137.002 100.027 136.721 100.365 136.379 100.682C136.038 100.991 135.627 101.248 135.146 101.451C134.666 101.646 134.097 101.744 133.438 101.744C132.599 101.744 131.838 101.577 131.155 101.244C130.479 100.902 129.942 100.434 129.543 99.8398C129.153 99.2376 128.958 98.554 128.958 97.7891C128.958 97.0973 129.088 96.4829 129.348 95.9458C129.609 95.4087 129.991 94.957 130.496 94.5908C131.008 94.2165 131.647 93.9357 132.412 93.7485C133.177 93.5532 134.064 93.4556 135.073 93.4556H137.112ZM151.882 88.292V91.0508H146.389V101.5H142.874V88.292H151.882ZM156.912 90.8311V106.578H153.396V88.292H156.655L156.912 90.8311ZM165.273 94.7495V95.0059C165.273 95.9661 165.16 96.8573 164.932 97.6792C164.712 98.5011 164.386 99.2173 163.955 99.8276C163.524 100.43 162.987 100.902 162.344 101.244C161.709 101.577 160.977 101.744 160.146 101.744C159.341 101.744 158.641 101.581 158.047 101.256C157.453 100.93 156.952 100.475 156.545 99.8887C156.147 99.2946 155.825 98.6069 155.581 97.8257C155.337 97.0444 155.15 96.2062 155.02 95.311V94.6396C155.15 93.6794 155.337 92.8005 155.581 92.0029C155.825 91.1973 156.147 90.5015 156.545 89.9155C156.952 89.3215 157.449 88.8617 158.035 88.5361C158.629 88.2106 159.325 88.0479 160.122 88.0479C160.96 88.0479 161.697 88.2065 162.332 88.5239C162.974 88.8413 163.512 89.297 163.943 89.8911C164.382 90.4852 164.712 91.1932 164.932 92.0151C165.16 92.8371 165.273 93.7485 165.273 94.7495ZM161.746 95.0059V94.7495C161.746 94.188 161.697 93.6712 161.599 93.1992C161.51 92.7191 161.363 92.3 161.16 91.9419C160.964 91.5838 160.704 91.3071 160.378 91.1118C160.061 90.9084 159.674 90.8066 159.219 90.8066C158.739 90.8066 158.328 90.884 157.986 91.0386C157.652 91.1932 157.38 91.417 157.168 91.71C156.956 92.0029 156.798 92.3529 156.692 92.7598C156.586 93.1667 156.521 93.6265 156.497 94.1392V95.8359C156.537 96.4382 156.651 96.9793 156.838 97.4595C157.026 97.9315 157.314 98.3058 157.705 98.5825C158.096 98.8592 158.608 98.9976 159.243 98.9976C159.707 98.9976 160.098 98.8958 160.415 98.6924C160.732 98.4808 160.989 98.1919 161.184 97.8257C161.388 97.4595 161.53 97.0363 161.611 96.5562C161.701 96.076 161.746 95.5592 161.746 95.0059ZM171.23 100.011L174.734 88.292H178.506L173.196 103.49C173.082 103.823 172.927 104.181 172.732 104.564C172.545 104.946 172.288 105.309 171.963 105.65C171.646 106 171.243 106.285 170.754 106.505C170.274 106.725 169.684 106.834 168.984 106.834C168.651 106.834 168.378 106.814 168.167 106.773C167.955 106.733 167.703 106.676 167.41 106.603V104.027C167.499 104.027 167.593 104.027 167.69 104.027C167.788 104.035 167.882 104.039 167.971 104.039C168.435 104.039 168.813 103.986 169.106 103.88C169.399 103.775 169.635 103.612 169.814 103.392C169.993 103.181 170.136 102.904 170.242 102.562L171.23 100.011ZM169.766 88.292L172.634 97.8623L173.135 101.585L170.742 101.842L165.994 88.292H169.766ZM185.793 95.2012H183.181V93.6265H185.049C185.488 93.6265 185.838 93.5654 186.099 93.4434C186.367 93.3213 186.558 93.1504 186.672 92.9307C186.794 92.7028 186.855 92.4465 186.855 92.1616C186.855 91.9093 186.803 91.6693 186.697 91.4414C186.599 91.2054 186.42 91.0142 186.16 90.8677C185.907 90.7131 185.549 90.6357 185.085 90.6357C184.703 90.6357 184.361 90.6927 184.06 90.8066C183.767 90.9206 183.535 91.0874 183.364 91.3071C183.201 91.5187 183.12 91.7751 183.12 92.0762H179.592C179.592 91.238 179.832 90.5218 180.312 89.9277C180.793 89.3255 181.436 88.8657 182.241 88.5483C183.047 88.2228 183.93 88.0601 184.89 88.0601C185.728 88.0601 186.485 88.1455 187.161 88.3164C187.836 88.4792 188.414 88.7233 188.894 89.0488C189.374 89.3743 189.74 89.7772 189.993 90.2573C190.253 90.7293 190.383 91.2786 190.383 91.9053C190.383 92.3529 190.278 92.776 190.066 93.1748C189.854 93.5736 189.549 93.9276 189.15 94.2368C188.752 94.5379 188.267 94.7739 187.698 94.9448C187.136 95.1157 186.501 95.2012 185.793 95.2012ZM183.181 94.3223H185.793C186.583 94.3223 187.275 94.3996 187.869 94.5542C188.471 94.7007 188.975 94.9204 189.382 95.2134C189.789 95.5063 190.094 95.8685 190.298 96.2998C190.509 96.723 190.615 97.2113 190.615 97.7646C190.615 98.3913 190.477 98.9528 190.2 99.4492C189.924 99.9375 189.529 100.353 189.016 100.694C188.503 101.036 187.897 101.297 187.197 101.476C186.497 101.655 185.728 101.744 184.89 101.744C183.995 101.744 183.124 101.598 182.278 101.305C181.431 101.012 180.736 100.56 180.19 99.9497C179.653 99.3394 179.385 98.554 179.385 97.5938H182.913C182.913 97.8704 182.994 98.1309 183.157 98.375C183.319 98.6191 183.564 98.8145 183.889 98.9609C184.215 99.0993 184.618 99.1685 185.098 99.1685C185.578 99.1685 185.964 99.0911 186.257 98.9365C186.55 98.7819 186.762 98.5785 186.892 98.3262C187.03 98.0658 187.1 97.7972 187.1 97.5205C187.1 97.1299 187.022 96.8125 186.868 96.5684C186.721 96.3242 186.493 96.1452 186.184 96.0312C185.883 95.9173 185.505 95.8604 185.049 95.8604H183.181V94.3223ZM196.279 96.5928L200.71 88.292H204.226V101.5H200.71V93.187L196.279 101.5H192.764V88.292H196.279V96.5928ZM213.662 88.292V101.5H210.134V88.292H213.662ZM217.91 88.292V91.0142H205.947V88.292H217.91ZM222.134 92.2104H225.967C227.171 92.2104 228.197 92.4098 229.043 92.8086C229.897 93.1992 230.549 93.7445 230.996 94.4443C231.452 95.1442 231.68 95.9539 231.68 96.8735C231.68 97.5409 231.549 98.1593 231.289 98.729C231.037 99.2905 230.667 99.7788 230.178 100.194C229.69 100.609 229.092 100.93 228.384 101.158C227.676 101.386 226.87 101.5 225.967 101.5H219.937V88.292H223.464V98.7656H225.967C226.496 98.7656 226.919 98.6802 227.236 98.5093C227.562 98.3302 227.798 98.0983 227.944 97.8135C228.099 97.5286 228.176 97.2194 228.176 96.8857C228.176 96.5358 228.099 96.2184 227.944 95.9336C227.798 95.6406 227.562 95.4046 227.236 95.2256C226.919 95.0465 226.496 94.957 225.967 94.957H222.134V92.2104Z" fill="#2CACE8"/>
<path d="M160.5 54.1667H185.5V29.1667H202.166L173 0L143.833 29.1667H160.5V54.1667ZM143.833 62.5H202.166V70.8333H143.833V62.5Z" fill="#2CACE8"/>
</svg>
